<?xml version="1.0" encoding="UTF-8"?>
<svg id="Layer_2" data-name="Layer 2" xmlns="http://www.w3.org/2000/svg" xmlns:xlink="http://www.w3.org/1999/xlink" viewBox="0 0 420.42 80.44">
  <defs>
    <style>
      .cls-1 {
        font-size: 25px;
      }

      .cls-1, .cls-2, .cls-3 {
        fill: #fff;
      }

      .cls-1, .cls-3 {
        font-family: Impact, Impact;
      }

      .cls-4 {
        fill: none;
      }

      .cls-3 {
        font-size: 14px;
      }

      .cls-5 {
        clip-path: url(#clippath);
      }
    </style>
    <clipPath id="clippath">
      <rect class="cls-4" width="420.42" height="80.44"/>
    </clipPath>
  </defs>
  <g class="cls-5">
    <g>
      <path class="cls-2" d="M109.98,20.99l-.05,1.05c-7.79,1.32-15.85,1.33-23.69,2.5-.43.39.02.5.46.54,6,.61,12.82-.7,18.86.31v1.02s-14.33,2.08-14.33,2.08c-.59.36.03.63.47.69,2.34.31,5.97.44,8.42.56s4.78-.1,7.15-.02c.49.1.48,1.3,0,1.39-1.55-.41-2.84.37-4.03.52-.89.11-1.85-.08-2.76.04-2.95.38-5.87,1.05-8.85,1.27l-.86.61.47,5.73-1.72-1.64-.18,1.51c-.11.67,1.39.48,1.53,1.1.06.26-.3.69-.26,1.06.19,1.76,1.49,4.03,1.56,6.29.13,4.74,1.05,8.26,1.57,12.82.15,1.29-.28,3.16,0,4.32.03.12,1.59,1.4,1.74,1.82,2.37-1.65,3.99-.67,6.54-.53.8.05,1.45-.19,2.12-.18.38,0,1.97.07,2.08.44-3.36.36-6.34,1.16-9.82.8l-.34.86c-1.63-.03-3.16-.22-4.63.51l-.18.56c.23,0,.43.06.58.21.45.44,1.28.84,1.28,1.43-2.95.11-5.96-.14-8.91,0-1.26.06-2.48.53-3.73.57-6.89.2-13.74.35-20.33.52-8.69.23-17.72.67-26.52.84-4.68.09-12.18.47-16.58,0-1.57-.17-4.37-2.17-4.92-3.37-.78-1.68,1.15-1.37,2.06-1.56.25-.05.2-.48.43-.53.74-.16,4.43.44,4.16-.68-.17-.7-3.94-.35-4.83-.42-.53-.04-3.05-.39-3.22-.6l-.69-4.58c.25-.22,2.22.5,1.88-.54-.8,0-2.39-.02-2.75-.74l-5.96-23.94.75-.45,16.87-.55c1.3-.34.93-.98-.3-1.1-5.06-.49-12.17.4-16.86-.28-1.58-.23-2.51-1.71-.89-2.11.5-.13,2.4-.28,3.06-.33,6.95-.44,14.84.24,21.3-1.09.75-.15,5.08.33,5.09-.42-.67-.48-2.12-.62-2.97-.68-5.58-.39-12.18-.42-17.79-.56-2.31-.06-8.21.41-9.95-.04-2.23-.58-1.84-6.56.35-7.78,2.4-1.33,6.59-.39,9.26-.35,31.01.42,62.1,1.32,93.09,1.38.88,0,5.4-.65,5.78-.29ZM25.85,38.02c-.62-.34-.89-.34-1.6-.38-1.56-.11-9.83-.14-10.7.36-.09.05-.83,1.13-.88,1.28-.61,1.81,1.07,8.01,3.37,8.81,1.07.38,9.46.37,11.01.21s2.28-1.18,2.23-2.56c-.03-.91-1.28-5.55-1.82-6.28-.18-.24-1.4-1.32-1.62-1.45ZM70.93,57.03h4.37l-.52-.77c-.83.2-2.24-.32-2.76-.32h-6.09l3.28-.54,7.34-.28v-1.09s-26.86.27-26.86.27l1.43,5.2,2.94-.15.32-.55-.33-1.51,1.23,2.05,3.09-.19.21-1.87.77,2.07,3.45-.16-.15-2.19.78,2.46,3.43-.27v-1.91s.64,1.9.64,1.9h3.73s-.31-2.17-.31-2.17ZM49.05,54.32l-3.1.26,1.56.54-1.58.71.65,3.66h3.43s-.96-5.17-.96-5.17ZM32.51,57.03h-4.69l.65-.44-.35-2-3.42-.02c-.42.38.84,2.45-.15,2.19l-.99-2.2h-3.23s-.15,1.93-.15,1.93l-.85-1.85-2.54-.07c-1.18.24.4,4.34.71,5.08l24.38-.15-1.14-3.83h-3.23c-.18.74.21,1.43.28,2.1.03.31.29.98-.27.92l-.98-4.06-3.39-.03c-.36.32,1.16,2.69-.31,2.46l-.33-2.44h-3.73s.31,2.17.31,2.17c.78.03,1.56-.03,2.34,0,.38.01,1.16-.21,1.09.27ZM45.32,55.67h-3.75s.91,3.71.91,3.71c.7.15,2.95.32,3.33-.14l-.49-3.57Z"/>
      <text class="cls-1" transform="translate(127.24 42.99)"><tspan x="0" y="0">RIGHTEOUS CARD SOLUTIONS</tspan></text>
      <text class="cls-3" transform="translate(226.49 64.23)"><tspan x="0" y="0">YES TO HIGH-RISK</tspan></text>
    </g>
  </g>
</svg>